<?xml version="1.0" encoding="UTF-8" standalone="no"?>
<!DOCTYPE svg PUBLIC "-//W3C//DTD SVG 1.1//EN" "http://www.w3.org/Graphics/SVG/1.1/DTD/svg11.dtd">
<svg version="1.1" xmlns="http://www.w3.org/2000/svg" xmlns:xlink="http://www.w3.org/1999/xlink" preserveAspectRatio="xMidYMid meet" viewBox="0 0 640 640" width="640" height="640"><defs><path d="M335.94 57.25C349.22 57.25 355.86 63.44 355.86 75.81C355.86 78.29 355.86 79.66 355.86 79.94C355.86 92.32 349.22 98.51 335.94 98.51C185.84 98.51 102.46 98.51 85.78 98.51C72.5 98.51 65.86 92.32 65.86 79.94C65.86 77.46 65.86 76.09 65.86 75.81C65.86 63.44 72.5 57.25 85.78 57.25C235.88 57.25 319.26 57.25 335.94 57.25Z" id="ij7ylv49A"></path><linearGradient id="gradientg1YYL4v2wC" gradientUnits="userSpaceOnUse" x1="65.86" y1="57.25" x2="355.86" y2="57.25"><stop style="stop-color: #ffffff;stop-opacity: 0" offset="0%"></stop><stop style="stop-color: #000000;stop-opacity: 0" offset="100%"></stop></linearGradient><path d="M123.08 74.23C121.23 64.12 110.93 57.33 100.08 59.06C89.24 60.79 81.95 70.39 83.81 80.49C85.66 90.6 95.96 97.39 106.81 95.66C117.65 93.93 124.94 84.33 123.08 74.23Z" id="b4bagle8Z7"></path><linearGradient id="gradientd3Y10AjuIL" gradientUnits="userSpaceOnUse" x1="87.17" y1="98.79" x2="126.45" y2="92.53"><stop style="stop-color: #ffffff;stop-opacity: 0" offset="0%"></stop><stop style="stop-color: #000000;stop-opacity: 0" offset="100%"></stop></linearGradient><path d="M318.59 57.25C330.71 57.25 336.76 63.44 336.76 75.81C336.76 78.29 336.76 79.66 336.76 79.94C336.76 92.32 330.71 98.51 318.59 98.51C221.69 98.51 167.85 98.51 157.08 98.51C144.97 98.51 138.91 92.32 138.91 79.94C138.91 77.46 138.91 76.09 138.91 75.81C138.91 63.44 144.97 57.25 157.08 57.25C253.99 57.25 307.83 57.25 318.59 57.25Z" id="a6udMEu0rn"></path><linearGradient id="gradientc6bc4FTn6" gradientUnits="userSpaceOnUse" x1="138.91" y1="57.25" x2="336.76" y2="57.25"><stop style="stop-color: #ffffff;stop-opacity: 0" offset="0%"></stop><stop style="stop-color: #000000;stop-opacity: 0" offset="100%"></stop></linearGradient><path d="M579.44 149.99C592.72 149.99 599.36 156.18 599.36 168.56C599.36 171.03 599.36 172.41 599.36 172.68C599.36 185.06 592.72 191.25 579.44 191.25C429.35 191.25 345.96 191.25 329.29 191.25C316 191.25 309.36 185.06 309.36 172.68C309.36 170.21 309.36 168.83 309.36 168.56C309.36 156.18 316 149.99 329.29 149.99C479.38 149.99 562.76 149.99 579.44 149.99Z" id="bsKvwEIvs"></path><linearGradient id="gradientf4k6VFqBQ6" gradientUnits="userSpaceOnUse" x1="309.36" y1="149.99" x2="599.36" y2="149.99"><stop style="stop-color: #ffffff;stop-opacity: 0" offset="0%"></stop><stop style="stop-color: #000000;stop-opacity: 0" offset="100%"></stop></linearGradient><path d="M366.59 166.97C364.73 156.87 354.43 150.07 343.59 151.8C332.74 153.53 325.45 163.13 327.31 173.24C329.17 183.34 339.47 190.13 350.31 188.4C361.16 186.67 368.44 177.08 366.59 166.97Z" id="aMOohSQfu"></path><linearGradient id="gradienta2eTtmuJJu" gradientUnits="userSpaceOnUse" x1="330.67" y1="191.54" x2="369.95" y2="185.27"><stop style="stop-color: #ffffff;stop-opacity: 0" offset="0%"></stop><stop style="stop-color: #000000;stop-opacity: 0" offset="100%"></stop></linearGradient><path d="M579.44 149.48C592.72 149.48 599.36 155.66 599.36 168.04C599.36 170.52 599.36 171.89 599.36 172.17C599.36 184.55 592.72 190.73 579.44 190.73C473.18 190.73 414.15 190.73 402.34 190.73C389.06 190.73 382.42 184.55 382.42 172.17C382.42 169.69 382.42 168.32 382.42 168.04C382.42 155.66 389.06 149.48 402.34 149.48C508.6 149.48 567.63 149.48 579.44 149.48Z" id="b4SJUpInbk"></path><linearGradient id="gradienta1bRTQ2Jhi" gradientUnits="userSpaceOnUse" x1="382.42" y1="149.48" x2="599.36" y2="149.48"><stop style="stop-color: #ffffff;stop-opacity: 0" offset="0%"></stop><stop style="stop-color: #000000;stop-opacity: 0" offset="100%"></stop></linearGradient><path d="M335.94 237.46C349.22 237.46 355.86 243.65 355.86 256.03C355.86 258.51 355.86 259.88 355.86 260.16C355.86 272.53 349.22 278.72 335.94 278.72C185.84 278.72 102.46 278.72 85.78 278.72C72.5 278.72 65.86 272.53 65.86 260.16C65.86 257.68 65.86 256.31 65.86 256.03C65.86 243.65 72.5 237.46 85.78 237.46C235.88 237.46 319.26 237.46 335.94 237.46Z" id="b1qCDlo2IT"></path><linearGradient id="gradientaHwKd28JR" gradientUnits="userSpaceOnUse" x1="65.86" y1="237.46" x2="355.86" y2="237.46"><stop style="stop-color: #ffffff;stop-opacity: 0" offset="0%"></stop><stop style="stop-color: #000000;stop-opacity: 0" offset="100%"></stop></linearGradient><path d="M123.08 254.44C121.23 244.34 110.93 237.55 100.08 239.28C89.24 241.01 81.95 250.6 83.81 260.71C85.66 270.82 95.96 277.61 106.81 275.88C117.65 274.15 124.94 264.55 123.08 254.44Z" id="e7bB2zf5bA"></path><linearGradient id="gradientc1Goik7Ytk" gradientUnits="userSpaceOnUse" x1="87.17" y1="279.01" x2="126.45" y2="272.75"><stop style="stop-color: #ffffff;stop-opacity: 0" offset="0%"></stop><stop style="stop-color: #000000;stop-opacity: 0" offset="100%"></stop></linearGradient><path d="M335.94 236.95C349.22 236.95 355.86 243.14 355.86 255.51C355.86 257.99 355.86 259.37 355.86 259.64C355.86 272.02 349.22 278.21 335.94 278.21C229.68 278.21 170.64 278.21 158.84 278.21C145.55 278.21 138.91 272.02 138.91 259.64C138.91 257.16 138.91 255.79 138.91 255.51C138.91 243.14 145.55 236.95 158.84 236.95C265.1 236.95 324.13 236.95 335.94 236.95Z" id="ahbow8kTN"></path><linearGradient id="gradienta261r2t2lf" gradientUnits="userSpaceOnUse" x1="138.91" y1="236.95" x2="355.86" y2="236.95"><stop style="stop-color: #ffffff;stop-opacity: 0" offset="0%"></stop><stop style="stop-color: #000000;stop-opacity: 0" offset="100%"></stop></linearGradient><path d="M532.96 122.33C532.96 111.63 532.96 104.94 532.96 102.26C532.96 88.53 521.8 77.4 508.06 77.46C493.67 77.51 457.69 77.65 400.12 77.88" id="bthcGTKRb"></path><path d="M238.37 178.59L238.95 175.07C237.62 175.07 236.88 175.07 236.73 175.07C235.56 175.07 234.6 174.03 234.6 172.74C234.6 171.11 234.6 158.08 234.6 156.45C234.6 155.16 235.56 154.11 236.73 154.11C239.3 154.11 259.91 154.11 262.48 154.11C263.65 154.11 264.6 155.16 264.6 156.45C264.6 158.08 264.6 171.11 264.6 172.74C264.6 174.03 263.65 175.07 262.48 175.07C261.31 175.07 255.47 175.07 244.95 175.07L238.37 178.59Z" id="b1kGF3idqY"></path><path d="M581 297.33C589.99 297.33 597.27 304.62 597.27 313.6C597.27 321.1 597.27 327.33 597.27 334.83C597.27 343.82 589.99 351.1 581 351.1C571.4 351.1 558.84 351.1 549.23 351.1C540.24 351.1 532.96 343.82 532.96 334.83C532.96 327.33 532.96 321.1 532.96 313.6C532.96 304.62 540.24 297.33 549.23 297.33C558.84 297.33 571.4 297.33 581 297.33Z" id="d8ugiW29p"></path><path d="M559.08 320C559.08 324.42 555.59 328 551.29 328C546.99 328 543.5 324.42 543.5 320C543.5 315.58 546.99 312 551.29 312C555.59 312 559.08 315.58 559.08 320Z" id="fgIGQGRUU"></path><path d="M587.36 320C587.36 324.42 583.86 328 579.57 328C575.27 328 571.78 324.42 571.78 320C571.78 315.58 575.27 312 579.57 312C583.86 312 587.36 315.58 587.36 320Z" id="dezysMTEJ"></path><path d="M576.07 334.37C577.52 334.37 578.7 335.55 578.7 337.01C578.7 337.53 578.7 336.48 578.7 337.01C578.7 338.46 577.52 339.64 576.07 339.64C571.11 339.64 558.88 339.64 553.93 339.64C552.47 339.64 551.29 338.46 551.29 337.01C551.29 336.48 551.29 337.53 551.29 337.01C551.29 335.55 552.47 334.37 553.93 334.37C558.88 334.37 571.11 334.37 576.07 334.37Z" id="ba5lEN5CF"></path><path d="M527.92 391.17C527.92 372.1 527.92 360.18 527.92 355.42C527.92 352.37 530.39 349.91 533.43 349.91C534.78 349.91 538.13 349.91 543.5 349.91" id="e1ZMjqokT"></path><path d="M600.55 392.36C600.55 373.29 600.55 361.38 600.55 356.61C600.55 353.57 598.09 351.1 595.04 351.1C593.7 351.1 590.34 351.1 584.97 351.1" id="aEn3jkYVC"></path><path d="M565.23 387.9L565.23 387.9L558.93 395.17L547.25 381.71L553.55 374.44L558.92 380.64L574.95 362.17L581.25 369.43L565.23 387.9Z" id="a49paMKPSO"></path><path d="M400.12 257.13C400.12 245.98 411.36 236.95 425.21 236.95C439.07 236.95 450.3 245.98 450.3 257.13C450.3 268.27 439.07 277.3 425.21 277.3C421.85 277.3 418.64 276.77 415.7 275.81C415.08 276.16 411.99 277.95 406.42 281.17L407.86 271.7C402.7 265.8 400.12 260.95 400.12 257.13Z" id="a3fPZe2Qe7"></path><path d="M502.3 362.17C302.83 362.17 178.16 362.17 128.29 362.17C114.57 362.17 103.45 351.04 103.45 337.32C103.45 333.03 103.45 322.31 103.45 305.17" id="a2Lfb5ylda"></path><path d="M504.12 367.65L493.75 373.42L493.6 362.17L493.45 350.92L503.97 356.4L514.5 361.89L504.12 367.65Z" id="gEznuOObT"></path><path d="M526.24 122.48L519.26 111.32L532.96 111.16L546.67 111L539.94 122.33L533.22 133.65L526.24 122.48Z" id="caOQI3v5v"></path><path d="M549.96 20.53L579.67 20.53L579.67 23.53L549.96 23.53L549.96 20.53Z" id="esOuQzqA6"></path><path d="M566 7.14L566.63 36.85L563.63 36.91L563 7.21L566 7.14Z" id="a13tGscdxa"></path><path d="M369.36 324.22C375.82 324.22 381.05 329.26 381.05 335.48C381.05 335.71 381.05 335.95 381.03 336.18C385.69 337.12 389.12 340.29 389.12 344.05C389.12 344.05 389.12 344.05 389.12 344.05C389.12 348.56 384.2 352.22 378.13 352.22C375.37 352.22 353.3 352.22 350.55 352.22C344.47 352.22 339.55 348.56 339.55 344.05C339.55 344.05 339.55 344.05 339.55 344.05C339.55 340.12 343.29 336.84 348.27 336.06C348.72 331.8 352.46 328.47 357 328.47C358 328.47 358.95 328.64 359.85 328.93C361.97 326.08 365.44 324.22 369.36 324.22Z" id="c4kI6CAI3H"></path><path d="M123.37 170.62C123.37 179.17 116.24 186.12 107.45 186.12C98.66 186.12 91.52 179.17 91.52 170.62C91.52 162.07 98.66 155.12 107.45 155.12C116.24 155.12 123.37 162.07 123.37 170.62Z" id="bvVZ81Y4P"></path><path d="M260.05 317.05C267.51 317.05 273.55 323.09 273.55 330.55C273.55 333.25 273.55 327.85 273.55 330.55C273.55 338.01 267.51 344.05 260.05 344.05C238.75 344.05 188.35 344.05 167.05 344.05C159.59 344.05 153.55 338.01 153.55 330.55C153.55 327.85 153.55 333.25 153.55 330.55C153.55 323.09 159.59 317.05 167.05 317.05C188.35 317.05 238.75 317.05 260.05 317.05Z" id="a5YXOZnZCe"></path><path d="M450.21 385.92C450.21 392.82 444.61 398.42 437.71 398.42C430.81 398.42 425.21 392.82 425.21 385.92C425.21 379.02 430.81 373.42 437.71 373.42C444.61 373.42 450.21 379.02 450.21 385.92Z" id="e3QIvbAXM"></path><path d="M474.55 385.92C474.55 391.44 470.07 395.92 464.55 395.92C459.03 395.92 454.55 391.44 454.55 385.92C454.55 380.4 459.03 375.92 464.55 375.92C470.07 375.92 474.55 380.4 474.55 385.92Z" id="f2IbOX9gwu"></path><path d="M490.89 385.92C490.89 389.23 488.2 391.92 484.89 391.92C481.58 391.92 478.89 389.23 478.89 385.92C478.89 382.6 481.58 379.92 484.89 379.92C488.2 379.92 490.89 382.6 490.89 385.92Z" id="dDVkkg2Xn"></path><path d="M500.88 385.92C500.88 387.3 499.76 388.42 498.38 388.42C497 388.42 495.88 387.3 495.88 385.92C495.88 384.54 497 383.42 498.38 383.42C499.76 383.42 500.88 384.54 500.88 385.92Z" id="bxwbxvNUf"></path><path d="M208.95 125.79C213.89 125.79 217.89 129.8 217.89 134.74C217.89 136.53 217.89 132.95 217.89 134.74C217.89 139.68 213.89 143.68 208.95 143.68C193.68 143.68 156.84 143.68 141.58 143.68C136.64 143.68 132.63 139.68 132.63 134.74C132.63 132.95 132.63 136.53 132.63 134.74C132.63 129.8 136.64 125.79 141.58 125.79C156.84 125.79 193.68 125.79 208.95 125.79Z" id="a25aV5mngO"></path><path d="M116.95 22.03C116.95 29.48 110.9 35.53 103.45 35.53C95.99 35.53 89.95 29.48 89.95 22.03C89.95 14.58 95.99 8.53 103.45 8.53C110.9 8.53 116.95 14.58 116.95 22.03Z" id="bLB5S43TT"></path><path d="M391.48 42.25L397.89 48.66L394.3 52.25L387.89 45.84L381.48 52.25L377.89 48.66L384.31 42.25L377.89 35.84L381.48 32.25L387.89 38.66L394.3 32.25L397.89 35.84L391.48 42.25Z" id="c8F20Ggfi"></path><path d="M537.42 220.53C542.53 220.53 546.67 224.66 546.67 229.77C546.67 231.62 546.67 227.92 546.67 229.77C546.67 234.87 542.53 239.01 537.42 239.01C529.62 239.01 515.43 239.01 507.62 239.01C502.52 239.01 498.38 234.87 498.38 229.77C498.38 227.92 498.38 231.62 498.38 229.77C498.38 224.66 502.52 220.53 507.62 220.53C515.43 220.53 529.62 220.53 537.42 220.53Z" id="akXyDympB"></path><path d="M166.97 378.67C173 378.67 177.89 383.56 177.89 389.6C177.89 391.78 177.89 387.41 177.89 389.6C177.89 395.63 173 400.53 166.97 400.53C152.73 400.53 120.95 400.53 106.72 400.53C100.68 400.53 95.79 395.63 95.79 389.6C95.79 387.41 95.79 391.78 95.79 389.6C95.79 383.56 100.68 378.67 106.72 378.67C120.95 378.67 152.73 378.67 166.97 378.67Z" id="b1tvshVGuA"></path></defs><g><g><g><use xlink:href="#ij7ylv49A" opacity="1" fill="url(#gradientg1YYL4v2wC)"></use><g><use xlink:href="#ij7ylv49A" opacity="1" fill-opacity="0" stroke="#ffffff" stroke-width="20" stroke-opacity="1"></use></g></g><g><use xlink:href="#b4bagle8Z7" opacity="1" fill="url(#gradientd3Y10AjuIL)"></use><g><use xlink:href="#b4bagle8Z7" opacity="1" fill-opacity="0" stroke="#ffffff" stroke-width="21" stroke-opacity="1"></use></g></g><g><use xlink:href="#a6udMEu0rn" opacity="1" fill="url(#gradientc6bc4FTn6)"></use><g><use xlink:href="#a6udMEu0rn" opacity="1" fill-opacity="0" stroke="#ffffff" stroke-width="19" stroke-opacity="1"></use></g></g><g><use xlink:href="#bsKvwEIvs" opacity="1" fill="url(#gradientf4k6VFqBQ6)"></use><g><use xlink:href="#bsKvwEIvs" opacity="1" fill-opacity="0" stroke="#ffffff" stroke-width="20" stroke-opacity="1"></use></g></g><g><use xlink:href="#aMOohSQfu" opacity="1" fill="url(#gradienta2eTtmuJJu)"></use><g><use xlink:href="#aMOohSQfu" opacity="1" fill-opacity="0" stroke="#ffffff" stroke-width="21" stroke-opacity="1"></use></g></g><g><use xlink:href="#b4SJUpInbk" opacity="1" fill="url(#gradienta1bRTQ2Jhi)"></use><g><use xlink:href="#b4SJUpInbk" opacity="1" fill-opacity="0" stroke="#ffffff" stroke-width="20" stroke-opacity="1"></use></g></g><g><use xlink:href="#b1qCDlo2IT" opacity="1" fill="url(#gradientaHwKd28JR)"></use><g><use xlink:href="#b1qCDlo2IT" opacity="1" fill-opacity="0" stroke="#ffffff" stroke-width="20" stroke-opacity="1"></use></g></g><g><use xlink:href="#e7bB2zf5bA" opacity="1" fill="url(#gradientc1Goik7Ytk)"></use><g><use xlink:href="#e7bB2zf5bA" opacity="1" fill-opacity="0" stroke="#ffffff" stroke-width="21" stroke-opacity="1"></use></g></g><g><use xlink:href="#ahbow8kTN" opacity="1" fill="url(#gradienta261r2t2lf)"></use><g><use xlink:href="#ahbow8kTN" opacity="1" fill-opacity="0" stroke="#ffffff" stroke-width="20" stroke-opacity="1"></use></g></g><g><g><use xlink:href="#bthcGTKRb" opacity="1" fill-opacity="0" stroke="#ffffff" stroke-width="4" stroke-opacity="1"></use></g></g><g><use xlink:href="#b1kGF3idqY" opacity="0.75" fill="#ffffff" fill-opacity="0.85"></use></g><g><use xlink:href="#d8ugiW29p" opacity="1" fill="#073b39" fill-opacity="0"></use><g><use xlink:href="#d8ugiW29p" opacity="1" fill-opacity="0" stroke="#ffffff" stroke-width="7" stroke-opacity="1"></use></g></g><g><use xlink:href="#fgIGQGRUU" opacity="1" fill="#ffffff" fill-opacity="0.91"></use></g><g><use xlink:href="#dezysMTEJ" opacity="1" fill="#ffffff" fill-opacity="0.91"></use></g><g><use xlink:href="#ba5lEN5CF" opacity="1" fill="#ffffff" fill-opacity="0.91"></use></g><g><g><use xlink:href="#e1ZMjqokT" opacity="1" fill-opacity="0" stroke="#ffffff" stroke-width="7" stroke-opacity="1"></use></g></g><g><g><use xlink:href="#aEn3jkYVC" opacity="1" fill-opacity="0" stroke="#ffffff" stroke-width="7" stroke-opacity="1"></use></g></g><g><use xlink:href="#a49paMKPSO" opacity="1" fill="#7d908f" fill-opacity="0"></use><g><use xlink:href="#a49paMKPSO" opacity="1" fill-opacity="0" stroke="#ffffff" stroke-width="4" stroke-opacity="1"></use></g></g><g><use xlink:href="#a3fPZe2Qe7" opacity="1" fill="#ffffff" fill-opacity="0.36"></use></g><g><g><filter id="shadow16345044" x="94.45" y="296.17" width="417.85" height="76" filterUnits="userSpaceOnUse" primitiveUnits="userSpaceOnUse"><feFlood></feFlood><feComposite in2="SourceAlpha" operator="in"></feComposite><feGaussianBlur stdDeviation="1"></feGaussianBlur><feOffset dx="1" dy="1" result="afterOffset"></feOffset><feFlood flood-color="#ababab" flood-opacity="0.5"></feFlood><feComposite in2="afterOffset" operator="in"></feComposite><feMorphology operator="dilate" radius="1"></feMorphology><feComposite in2="SourceAlpha" operator="out"></feComposite></filter><path d="M502.3 362.17C302.83 362.17 178.16 362.17 128.29 362.17C114.57 362.17 103.45 351.04 103.45 337.32C103.45 333.03 103.45 322.31 103.45 305.17" id="e84DTi7YZ" fill="none" stroke="white" filter="url(#shadow16345044)"></path></g><g><use xlink:href="#a2Lfb5ylda" opacity="1" fill-opacity="0" stroke="#ffffff" stroke-width="4" stroke-opacity="1"></use></g></g><g><use xlink:href="#gEznuOObT" opacity="1" fill="#ffffff" fill-opacity="0.91"></use></g><g><use xlink:href="#caOQI3v5v" opacity="1" fill="#ffffff" fill-opacity="1"></use></g><g><use xlink:href="#esOuQzqA6" opacity="1" fill="#ffffff" fill-opacity="0.91"></use></g><g><use xlink:href="#a13tGscdxa" opacity="1" fill="#ffffff" fill-opacity="0.91"></use></g><g><use xlink:href="#c4kI6CAI3H" opacity="1" fill="#ffffff" fill-opacity="0.51"></use></g><g><use xlink:href="#bvVZ81Y4P" opacity="0.71" fill="#216666" fill-opacity="0"></use><g><use xlink:href="#bvVZ81Y4P" opacity="0.71" fill-opacity="0" stroke="#ffffff" stroke-width="3" stroke-opacity="0.78"></use></g></g><g><use xlink:href="#a5YXOZnZCe" opacity="0.5" fill="#206666" fill-opacity="0"></use><g><use xlink:href="#a5YXOZnZCe" opacity="0.5" fill-opacity="0" stroke="#ffffff" stroke-width="7" stroke-opacity="0.82"></use></g></g><g><use xlink:href="#e3QIvbAXM" opacity="1" fill="#ffffff" fill-opacity="0.89"></use></g><g><use xlink:href="#f2IbOX9gwu" opacity="1" fill="#ffffff" fill-opacity="0.74"></use></g><g><use xlink:href="#dDVkkg2Xn" opacity="1" fill="#ffffff" fill-opacity="0.89"></use></g><g><use xlink:href="#bxwbxvNUf" opacity="1" fill="#ffffff" fill-opacity="0.89"></use></g><g><use xlink:href="#a25aV5mngO" opacity="1" fill="#ffffff" fill-opacity="0.24"></use></g><g><use xlink:href="#bLB5S43TT" opacity="1" fill="#ffffff" fill-opacity="0"></use><g><use xlink:href="#bLB5S43TT" opacity="1" fill-opacity="0" stroke="#ffffff" stroke-width="2" stroke-opacity="0.45"></use></g></g><g><use xlink:href="#c8F20Ggfi" opacity="0.19" fill="#ffffff" fill-opacity="0.61"></use><g><use xlink:href="#c8F20Ggfi" opacity="0.19" fill-opacity="0" stroke="#ffffff" stroke-width="2" stroke-opacity="1"></use></g></g><g><use xlink:href="#akXyDympB" opacity="1" fill="#ffffff" fill-opacity="0.15"></use></g><g><use xlink:href="#b1tvshVGuA" opacity="0.78" fill="#ffffff" fill-opacity="0.49"></use></g></g></g></svg>